<svg width="902" height="267" viewBox="0 0 902 267" fill="none" xmlns="http://www.w3.org/2000/svg">
<path d="M124.42 49.9112C124.42 43.4492 123.147 37.0505 120.674 31.0805C118.202 25.1104 114.577 19.6858 110.008 15.1165C105.438 10.5472 100.014 6.92266 94.0437 4.44977C88.0736 1.97688 81.6749 0.704102 75.213 0.704102C68.751 0.704102 62.3523 1.97688 56.3822 4.44977C50.4121 6.92266 44.9876 10.5472 40.4183 15.1165C35.849 19.6858 32.2244 25.1104 29.7515 31.0805C27.2786 37.0505 26.0059 43.4492 26.0059 49.9112C26.0059 59.6612 28.881 68.7294 33.7736 76.3776H33.7173L75.213 141.296L116.709 76.3776H116.659C121.727 68.4806 124.421 59.2945 124.42 49.9112ZM75.213 71C69.6199 71 64.2559 68.7781 60.301 64.8232C56.346 60.8683 54.1242 55.5043 54.1242 49.9112C54.1242 44.3181 56.346 38.9541 60.301 34.9992C64.2559 31.0443 69.6199 28.8224 75.213 28.8224C80.806 28.8224 86.1701 31.0443 90.125 34.9992C94.0799 38.9541 96.3017 44.3181 96.3017 49.9112C96.3017 55.5043 94.0799 60.8683 90.125 64.8232C86.1701 68.7781 80.806 71 75.213 71Z" fill="#44DEAC"/>
<circle cx="26.0058" cy="144.81" r="25.1893" fill="#44DEAC"/>
<path d="M252 127.85C234.903 129.383 220.72 130.15 209.45 130.15C201.937 130.15 196.417 128.387 192.89 124.86C189.363 121.333 187.6 115.813 187.6 108.3V71.5C187.6 63.45 189.402 57.6233 193.005 54.02C196.685 50.34 202.55 48.5 210.6 48.5H252V64.6H215.2C210.6 64.6 208.3 66.9 208.3 71.5V108.3C208.3 110.063 208.798 111.482 209.795 112.555C210.868 113.552 212.21 114.05 213.82 114.05C215.43 114.05 217.193 114.05 219.11 114.05C221.027 113.973 223.02 113.897 225.09 113.82C227.16 113.743 229.23 113.667 231.3 113.59C233.447 113.513 236.168 113.36 239.465 113.13C242.838 112.9 247.017 112.632 252 112.325V127.85ZM327.913 111.75C327.913 117.5 326.265 122.023 322.968 125.32C319.748 128.54 315.263 130.15 309.513 130.15H283.063C277.313 130.15 272.79 128.54 269.493 125.32C266.273 122.023 264.663 117.5 264.663 111.75V85.3C264.663 79.55 266.273 75.065 269.493 71.845C272.79 68.5483 277.313 66.9 283.063 66.9H309.513C315.263 66.9 319.748 68.5483 322.968 71.845C326.265 75.065 327.913 79.55 327.913 85.3V111.75ZM307.788 87.025C307.788 83.9583 306.255 82.425 303.188 82.425H289.388C286.322 82.425 284.788 83.9583 284.788 87.025V110.025C284.788 113.092 286.322 114.625 289.388 114.625H303.188C306.255 114.625 307.788 113.092 307.788 110.025V87.025ZM377.925 83.575C373.862 83.575 369.262 84.3417 364.125 85.875V129H344V68.05H361.825L362.975 73.8C366.578 71.4233 370.258 69.6983 374.015 68.625C377.848 67.475 381.068 66.9 383.675 66.9H388.85C394.063 66.9 398.242 68.4717 401.385 71.615C404.528 74.7583 406.1 78.9367 406.1 84.15V129H385.975V87.6C385.975 86.45 385.592 85.4917 384.825 84.725C384.058 83.9583 383.1 83.575 381.95 83.575H377.925ZM463.012 68.05H484.287L461.287 129H438.287L415.287 68.05H436.562L449.787 109.45L463.012 68.05ZM517.097 81.275C514.031 81.275 512.497 82.8083 512.497 85.875V92.2H532.047V85.875C532.047 82.8083 530.514 81.275 527.447 81.275H517.097ZM549.872 127.85C535.076 129.383 521.659 130.15 509.622 130.15C504.409 130.15 500.231 128.578 497.087 125.435C493.944 122.292 492.372 118.113 492.372 112.9V85.3C492.372 79.55 493.982 75.065 497.202 71.845C500.499 68.5483 505.022 66.9 510.772 66.9H533.772C539.522 66.9 544.007 68.5483 547.227 71.845C550.524 75.065 552.172 79.55 552.172 85.3V106.575H512.497V111.175C512.497 112.325 512.881 113.283 513.647 114.05C514.414 114.817 515.372 115.2 516.522 115.2C524.112 115.2 535.229 114.625 549.872 113.475V127.85ZM622.278 127.85C607.941 129.383 595.291 130.15 584.328 130.15C579.114 130.15 574.936 128.578 571.793 125.435C568.649 122.292 567.078 118.113 567.078 112.9V86.45C567.078 80.7 568.688 76.215 571.908 72.995C575.204 69.6983 579.728 68.05 585.478 68.05H622.278V83.575H591.803C588.736 83.575 587.203 85.1083 587.203 88.175V110.6C587.203 111.75 587.586 112.708 588.353 113.475C589.119 114.242 590.078 114.625 591.228 114.625C598.128 114.625 608.478 114.05 622.278 112.9V127.85ZM679.755 129C672.318 129.767 665.035 130.15 657.905 130.15C652.692 130.15 648.513 128.578 645.37 125.435C642.227 122.292 640.655 118.113 640.655 112.9V83.575H633.755V68.05H640.655L642.955 54.25H660.78V68.05H675.155V83.575H660.78V110.025C660.78 111.175 661.163 112.133 661.93 112.9C662.697 113.667 663.655 114.05 664.805 114.05H679.755V129ZM715.508 114.05C719.572 114.05 724.172 113.283 729.308 111.75V104.85H712.633C711.483 104.85 710.525 105.233 709.758 106C708.992 106.767 708.608 107.725 708.608 108.875V110.025C708.608 111.175 708.992 112.133 709.758 112.9C710.525 113.667 711.483 114.05 712.633 114.05H715.508ZM694.233 69.2C708.263 67.6667 720.913 66.9 732.183 66.9C737.397 66.9 741.575 68.4717 744.718 71.615C747.862 74.7583 749.433 78.9367 749.433 84.15V129H731.608L730.458 123.25C726.855 125.627 723.137 127.39 719.303 128.54C715.547 129.613 712.365 130.15 709.758 130.15H705.733C700.52 130.15 696.342 128.578 693.198 125.435C690.055 122.292 688.483 118.113 688.483 112.9V107.725C688.483 102.512 690.055 98.3333 693.198 95.19C696.342 92.0467 700.52 90.475 705.733 90.475H729.308V85.875C729.308 84.725 728.925 83.7667 728.158 83C727.392 82.2333 726.433 81.85 725.283 81.85C720.3 81.85 714.78 82.08 708.723 82.54C702.743 83 697.913 83.345 694.233 83.575V69.2Z" fill="white"/>
</svg>
